<svg xmlns="http://www.w3.org/2000/svg" viewBox="0 0 1024 1024" width="1024" height="1024">
  <rect x="102" y="102" width="820" height="820" rx="184" fill="#0a0a0a"/>
  <g transform="translate(280, 195) scale(0.19)">
    <path fill="#ffffff" d="M 1192.91 542.123 C 1199.46 541.346 1203.48 542.867 1209.7 544.607 C 1234.93 569.944 1234.75 594.848 1240.76 628.414 L 1255.43 709.788 L 1295.39 925.889 C 1307.62 991.628 1319.35 1059.56 1333.59 1124.98 C 1335.56 1134.04 1345.76 1147.3 1353.09 1152.59 C 1366.4 1162.24 1382.98 1166.26 1399.23 1163.79 C 1419.15 1160.79 1436.6 1148.83 1446.58 1131.33 C 1456.26 1114.33 1459.06 1082.6 1462.92 1062.46 C 1474.34 1001.23 1485.31 939.925 1495.84 878.54 C 1500.68 849.808 1505.65 821.043 1509.8 792.327 C 1511.25 782.343 1519.72 771.122 1530.09 770.546 C 1536.59 770.185 1545.88 777.639 1547.39 782.937 C 1553.22 803.335 1556.59 824.969 1560.53 845.811 L 1599.27 1053.49 L 1610.21 1113.52 C 1612.12 1123.95 1613.21 1135.07 1616.48 1145.16 C 1619.6 1154.78 1624.1 1163.26 1632.18 1169.63 C 1640.25 1176 1649.76 1180.24 1660.19 1178.62 C 1673.69 1176.53 1685.3 1166.34 1690.86 1154.1 C 1698.09 1138.18 1700.14 1106.43 1702.96 1088.13 C 1705.74 1070.1 1726.64 935.321 1734.05 927.074 C 1735.93 924.977 1738.72 924.094 1741.48 924.449 C 1745.43 924.956 1748.8 927.567 1751.07 930.717 C 1754.92 936.038 1764.86 998.548 1767.1 1010.8 C 1774.82 1052.62 1782.29 1094.48 1789.49 1136.4 C 1792.58 1154.34 1797.06 1175.09 1798.51 1193.02 C 1799.44 1204.6 1795.03 1224.5 1792.89 1236.74 L 1781.23 1301.69 L 1763.2 1402.25 C 1760.14 1419.34 1756.5 1436.34 1753.99 1453.55 C 1752.69 1463.33 1737.95 1475.33 1732.44 1461.44 C 1727.86 1449.9 1725.55 1433.17 1723.27 1420.99 C 1717.5 1390.58 1712.15 1360.09 1707.23 1329.53 C 1704.14 1310.38 1701 1291.22 1698.08 1272.04 C 1694.84 1250.74 1691.58 1223.05 1667.38 1215.6 C 1657.46 1212.56 1646.73 1213.72 1637.69 1218.81 C 1629.98 1223.06 1622.48 1230.62 1619.86 1238.96 C 1610.53 1268.59 1605.16 1305.95 1599.63 1336.74 L 1569.02 1501.46 C 1565.59 1520.22 1562.29 1539.33 1558.04 1558.13 C 1553.83 1576.72 1554.86 1608.56 1536.67 1619.66 C 1525.72 1626.34 1513.92 1614.21 1511.56 1603.94 C 1506.07 1580 1503.1 1555.07 1498.8 1530.72 C 1487.63 1465.05 1475.98 1399.46 1463.85 1333.96 C 1459.91 1312.84 1457.77 1288.29 1450.41 1268.46 C 1431.4 1218.54 1355.51 1211.52 1334.86 1264.52 C 1329.01 1279.54 1326.34 1299.12 1323.51 1315.11 L 1313.17 1371.18 L 1259.54 1659.08 C 1253.91 1691.3 1248.09 1723.5 1242.07 1755.66 C 1236.43 1787.21 1234.92 1835.18 1201.9 1849.9 C 1184.12 1849.83 1171.91 1842.71 1165.8 1825.75 C 1152.65 1789.26 1147.24 1743 1140.31 1704.9 L 1087.76 1420.46 L 1070.42 1329.04 C 1067.15 1311.1 1064.44 1293.49 1060.6 1275.33 C 1051.45 1230.78 1000.19 1214.23 964.289 1239.52 C 937.315 1258.52 935.415 1289.3 930.319 1319.09 L 920.414 1374.35 C 906.802 1447.62 894.174 1521.07 882.535 1594.68 C 880.277 1608.33 878.283 1612.77 867.166 1620.64 L 865.745 1621.63 L 854.357 1620.65 C 850.327 1616.55 844.3 1610.04 842.814 1604.46 C 837.27 1583.65 833.462 1559.24 829.514 1538.11 L 793.771 1345.51 C 789.678 1323.06 785.444 1300.64 781.068 1278.25 C 778.99 1267.39 777.363 1256.84 774.638 1246.07 C 769.172 1214.17 722.552 1201.68 705.316 1229.44 C 694.286 1247.2 690.052 1294.9 686.832 1315.66 C 681.842 1346.16 676.431 1376.6 670.6 1406.95 C 667.718 1422.79 665.435 1438.9 661.646 1454.49 C 659.901 1461.68 656.561 1467.76 648.256 1466.99 C 644.4 1466.63 642.291 1463.37 639.99 1460.66 C 635.863 1445.67 632.096 1422.53 629.126 1406.65 C 622.799 1372.65 616.65 1338.61 610.679 1304.54 C 606.372 1280.93 602.206 1257.3 598.18 1233.64 C 596.815 1225.63 592.819 1204.48 592.565 1197.12 C 592.243 1187.78 597.116 1164.01 598.988 1153.5 C 607.598 1105.14 615.494 1056.72 625.24 1008.58 C 630.4 983.613 632.661 957.544 639.761 933.077 C 642.746 922.791 657.401 922.094 660.043 931.769 C 664.126 946.726 666.518 962.636 669.447 977.914 C 677.887 1022.63 685.645 1067.46 692.716 1112.41 C 694.493 1123.53 694.808 1137.01 698.172 1147.39 C 705.101 1168.78 724.731 1185.27 747.726 1176.31 C 774.201 1165.99 775.166 1143.66 780.066 1119.63 C 783.637 1102.12 786.409 1084.97 789.671 1067.66 L 831.49 842.693 C 835.314 823.053 838.543 800.668 844.865 781.584 C 846.036 778.048 855.014 772.066 859.132 770.773 C 867.84 768.039 876.497 777.041 879.21 784.571 C 885.023 809.417 888.74 836.905 893.067 862.041 C 903.957 929.132 915.964 996.036 929.084 1062.73 C 936.499 1101.05 932.766 1135.72 972.424 1157.96 C 998.556 1172.62 1045.27 1160.93 1055.03 1131.94 C 1066.32 1098.45 1071.56 1058.04 1078 1022.94 L 1125.43 768.149 C 1131.3 736.145 1156.11 581.575 1166.01 564.622 C 1173.18 552.343 1179.1 545.755 1192.91 542.123 z"/>
  </g>
</svg>
